<svg id="svg" version="1.1" xmlns="http://www.w3.org/2000/svg" xmlns:xlink="http://www.w3.org/1999/xlink" width="400" height="210" viewBox="0, 0, 400,210"><g id="svgg"><path id="path0" d="M175.677 49.056 C 169.115 50.658,167.060 59.006,172.154 63.374 C 176.650 67.230,183.786 65.139,185.430 59.483 C 187.224 53.314,181.835 47.554,175.677 49.056 M202.206 49.070 C 193.149 52.318,194.801 64.981,204.324 65.301 C 214.089 65.629,216.136 51.888,206.748 49.039 C 205.515 48.665,203.294 48.680,202.206 49.070 M203.466 82.772 C 201.088 83.167,199.285 84.752,198.563 87.080 C 198.359 87.737,198.315 95.113,198.363 121.008 L 198.424 154.097 198.947 155.120 C 201.359 159.843,208.045 159.700,210.215 154.878 L 210.714 153.770 210.714 120.725 C 210.714 83.900,210.825 86.615,209.250 84.826 C 207.793 83.171,205.649 82.409,203.466 82.772 M104.832 83.338 C 88.348 84.635,75.496 95.488,72.290 110.819 C 72.170 111.397,71.975 112.307,71.858 112.841 C 71.323 115.289,71.196 120.408,71.259 136.975 L 71.324 154.097 71.947 155.222 C 74.575 159.966,81.268 159.636,83.257 154.663 C 83.582 153.852,83.613 152.254,83.613 136.597 C 83.613 119.128,83.719 116.266,84.477 113.235 C 87.203 102.339,94.549 95.947,105.717 94.755 C 107.021 94.616,118.612 94.534,137.859 94.529 C 170.085 94.519,168.660 94.565,170.227 93.488 C 173.693 91.107,173.308 85.814,169.515 83.696 C 168.857 83.329,109.149 82.998,104.832 83.338 M255.567 83.336 C 232.480 86.352,229.551 118.858,251.786 125.299 C 252.479 125.500,253.330 125.774,253.676 125.908 C 254.139 126.087,262.250 126.180,284.244 126.259 C 313.994 126.365,314.188 126.368,315.341 126.806 C 323.956 130.073,324.493 141.771,316.216 145.846 L 314.820 146.534 279.416 146.652 C 259.944 146.718,243.767 146.844,243.467 146.933 C 238.662 148.362,238.443 155.706,243.147 157.671 C 244.451 158.216,314.731 158.127,317.334 157.577 C 338.436 153.121,340.876 124.149,320.798 116.438 C 316.940 114.956,319.365 115.062,286.345 114.924 C 264.628 114.834,256.433 114.735,255.932 114.557 C 246.582 111.236,246.833 97.868,256.303 94.823 C 256.591 94.730,272.757 94.605,292.227 94.544 L 327.626 94.433 328.869 93.592 C 332.384 91.217,332.350 86.370,328.802 84.063 L 327.626 83.298 291.912 83.276 C 272.269 83.263,255.914 83.290,255.567 83.336 M94.643 115.111 C 89.610 116.356,88.763 123.237,93.342 125.685 L 94.223 126.155 125.210 126.155 C 159.764 126.155,156.398 126.294,158.060 124.804 C 161.059 122.115,160.316 117.290,156.618 115.441 C 155.744 115.004,96.354 114.688,94.643 115.111 " stroke="none" fill="#4fcd40" fill-rule="evenodd"></path><path id="path1" d="M0.000 105.042 L 0.000 210.084 200.000 210.084 L 400.000 210.084 400.000 105.042 L 400.000 0.000 200.000 0.000 L 0.000 0.000 0.000 105.042 M125.791 48.829 C 130.242 50.014,133.137 55.007,131.844 59.269 C 129.921 65.603,122.409 67.775,117.690 63.360 C 111.197 57.287,117.189 46.539,125.791 48.829 M153.308 48.930 C 160.616 51.601,161.064 61.694,154.020 64.985 C 145.610 68.915,137.917 57.805,144.399 51.090 C 146.673 48.734,150.340 47.845,153.308 48.930 M180.409 48.930 C 183.948 50.224,186.138 53.316,186.131 57.011 C 186.113 67.090,172.535 69.073,169.225 59.480 C 167.032 53.124,173.972 46.577,180.409 48.930 M207.080 48.763 C 212.399 50.881,214.621 56.083,212.301 60.986 C 210.625 64.529,204.991 66.872,201.766 65.367 C 201.430 65.210,200.831 64.926,200.433 64.736 C 196.826 63.010,194.827 57.706,196.424 54.097 C 196.527 53.866,196.766 53.329,196.956 52.904 C 197.656 51.342,199.663 49.646,201.786 48.824 C 202.608 48.505,206.325 48.463,207.080 48.763 M100.152 49.451 C 103.404 50.947,105.486 54.842,104.890 58.318 C 103.263 67.818,89.948 67.881,88.184 58.397 C 86.983 51.936,94.057 46.647,100.152 49.451 M207.518 83.008 C 208.598 83.624,210.084 85.025,210.084 85.426 C 210.084 85.585,210.156 85.714,210.245 85.714 C 211.222 85.714,211.742 151.799,210.785 154.405 C 209.023 159.202,203.122 160.463,199.693 156.775 C 199.290 156.342,198.958 155.869,198.955 155.725 C 198.952 155.580,198.872 155.462,198.778 155.462 C 197.811 155.462,197.304 89.863,198.249 87.065 C 199.593 83.083,204.153 81.088,207.518 83.008 M169.271 83.305 C 174.184 85.358,174.200 92.166,169.296 94.399 C 168.593 94.719,166.083 94.748,139.044 94.750 C 105.076 94.753,104.365 94.783,99.580 96.417 C 93.773 98.399,89.104 102.504,86.782 107.668 C 86.418 108.477,86.041 109.284,85.944 109.461 C 85.847 109.638,85.696 110.107,85.609 110.504 C 85.522 110.901,85.375 111.371,85.282 111.548 C 85.121 111.856,84.856 113.057,84.401 115.546 C 84.277 116.227,84.136 124.418,84.059 135.504 L 83.929 154.307 83.318 155.415 C 80.972 159.676,75.308 160.097,72.140 156.246 C 71.856 155.900,71.342 154.771,71.029 153.803 C 70.662 152.666,70.741 119.334,71.119 116.071 C 71.510 112.693,71.836 110.711,72.073 110.268 C 72.181 110.066,72.269 109.708,72.269 109.472 C 72.269 108.557,73.324 105.736,74.933 102.350 C 76.881 98.251,80.387 93.803,83.824 91.069 C 85.579 89.674,86.687 88.915,87.237 88.730 C 87.440 88.662,87.605 88.540,87.605 88.460 C 87.605 88.126,93.096 85.579,95.063 85.000 C 95.756 84.796,96.465 84.573,96.639 84.503 C 97.263 84.253,100.769 83.517,102.836 83.202 C 105.108 82.856,168.431 82.954,169.271 83.305 M328.703 83.605 C 332.226 85.625,332.824 90.255,329.940 93.180 C 329.432 93.696,328.877 94.118,328.706 94.118 C 328.536 94.118,328.357 94.236,328.309 94.380 C 328.240 94.588,320.896 94.667,292.945 94.759 C 266.911 94.845,257.403 94.940,256.655 95.123 C 255.587 95.384,253.735 96.242,253.272 96.689 C 253.121 96.835,252.772 97.151,252.496 97.392 C 248.828 100.606,248.236 107.255,251.305 110.761 C 251.535 111.024,251.832 111.386,251.965 111.565 C 252.659 112.502,254.809 113.819,256.513 114.352 C 257.023 114.512,266.402 114.617,287.227 114.696 C 310.807 114.786,317.262 114.867,317.469 115.074 C 317.613 115.218,317.950 115.336,318.218 115.336 C 319.032 115.336,323.255 116.944,323.739 117.439 C 323.797 117.498,324.199 117.732,324.632 117.959 C 325.066 118.187,325.420 118.440,325.420 118.521 C 325.420 118.602,325.586 118.724,325.788 118.790 C 326.760 119.111,331.092 123.484,331.092 124.145 C 331.092 124.269,331.170 124.370,331.265 124.370 C 331.871 124.370,334.056 129.647,334.771 132.836 C 335.171 134.623,335.128 139.402,334.700 140.651 C 334.581 140.998,334.330 141.849,334.142 142.542 C 332.660 148.014,328.334 153.277,323.214 155.837 C 321.480 156.704,320.463 157.143,320.186 157.143 C 320.057 157.143,319.788 157.231,319.587 157.340 C 317.790 158.309,318.235 158.298,279.622 158.298 L 243.382 158.298 242.286 157.602 C 237.583 154.613,238.506 148.301,243.908 146.506 C 244.196 146.410,260.315 146.283,279.727 146.223 L 315.021 146.113 316.249 145.511 C 318.480 144.417,320.077 142.536,321.518 139.306 C 322.148 137.896,321.796 134.249,320.847 132.339 C 319.914 130.463,318.529 128.866,317.017 127.923 C 315.061 126.704,317.460 126.797,284.769 126.666 C 255.542 126.548,254.903 126.537,253.256 126.113 C 249.522 125.152,246.380 123.552,243.690 121.242 C 241.918 119.721,239.286 116.573,239.286 115.975 C 239.286 115.874,239.208 115.760,239.114 115.721 C 238.731 115.565,237.353 112.281,236.793 110.189 C 236.100 107.598,235.900 103.525,236.353 101.218 C 236.642 99.748,237.161 97.884,237.407 97.429 C 237.516 97.229,237.605 96.942,237.605 96.793 C 237.605 96.415,238.699 94.346,239.840 92.566 C 240.827 91.026,244.782 86.975,245.299 86.975 C 245.458 86.975,245.588 86.887,245.588 86.779 C 245.588 86.671,245.801 86.517,246.061 86.435 C 246.321 86.354,246.581 86.222,246.639 86.142 C 247.165 85.412,251.504 83.747,254.517 83.119 C 254.748 83.071,271.292 83.022,291.282 83.010 L 327.626 82.987 328.703 83.605 M156.670 115.074 C 156.718 115.218,156.899 115.336,157.071 115.336 C 157.243 115.336,157.828 115.785,158.370 116.334 C 161.388 119.386,160.657 124.077,156.846 126.116 L 155.987 126.576 125.210 126.576 L 94.433 126.576 93.460 126.109 C 91.485 125.162,89.914 122.716,89.914 120.588 C 89.914 119.607,90.503 117.647,90.798 117.647 C 90.891 117.647,90.966 117.524,90.966 117.375 C 90.966 116.941,92.454 115.631,93.487 115.154 C 94.655 114.616,156.491 114.537,156.670 115.074 " stroke="none" fill="#fbfcfb" fill-rule="evenodd"></path><path id="path2" d="M204.044 48.680 C 204.362 48.728,204.882 48.728,205.200 48.680 C 205.517 48.632,205.257 48.592,204.622 48.592 C 203.986 48.592,203.726 48.632,204.044 48.680 M121.218 49.049 C 119.446 49.624,117.984 50.525,118.203 50.909 C 118.281 51.045,118.267 51.085,118.173 51.000 C 117.938 50.787,117.409 51.255,117.577 51.527 C 117.653 51.649,117.611 51.683,117.483 51.604 C 117.188 51.422,116.152 52.937,115.634 54.307 C 115.032 55.900,115.130 60.156,115.760 59.767 C 115.871 59.698,115.909 59.780,115.844 59.948 C 115.680 60.375,116.553 62.026,116.847 61.845 C 116.995 61.754,117.023 61.796,116.922 61.957 C 116.686 62.340,118.430 63.914,119.880 64.625 C 121.749 65.543,125.348 65.531,127.200 64.601 C 128.683 63.856,130.371 62.337,130.136 61.957 C 130.038 61.799,130.064 61.754,130.203 61.839 C 130.873 62.253,132.061 58.217,131.841 56.275 C 131.612 54.244,130.163 51.241,129.586 51.598 C 129.446 51.684,129.404 51.652,129.486 51.521 C 129.701 51.172,128.001 49.844,126.697 49.342 C 125.196 48.764,122.537 48.622,121.218 49.049 M198.411 51.103 L 197.794 51.786 198.477 51.169 C 198.852 50.829,199.160 50.522,199.160 50.486 C 199.160 50.324,198.986 50.467,198.411 51.103 M142.082 57.038 C 142.083 57.731,142.122 57.989,142.169 57.612 C 142.216 57.234,142.215 56.667,142.167 56.351 C 142.119 56.036,142.081 56.345,142.082 57.038 M158.891 57.143 C 158.891 57.894,158.929 58.201,158.976 57.826 C 159.022 57.450,159.022 56.836,158.976 56.460 C 158.929 56.085,158.891 56.392,158.891 57.143 M185.977 57.038 C 185.980 57.500,186.023 57.664,186.073 57.403 C 186.123 57.142,186.121 56.764,186.069 56.563 C 186.016 56.362,185.975 56.576,185.977 57.038 M156.501 62.973 L 155.777 63.761 156.565 63.037 C 157.298 62.363,157.450 62.185,157.289 62.185 C 157.254 62.185,156.899 62.539,156.501 62.973 M143.908 62.461 C 143.908 62.497,144.215 62.804,144.590 63.143 L 145.273 63.761 144.656 63.078 C 144.081 62.441,143.908 62.298,143.908 62.461 M149.733 65.488 C 150.106 65.534,150.767 65.535,151.203 65.489 C 151.639 65.444,151.334 65.406,150.525 65.405 C 149.716 65.404,149.360 65.441,149.733 65.488 M204.152 65.695 C 204.413 65.745,204.791 65.743,204.992 65.691 C 205.193 65.638,204.979 65.597,204.517 65.599 C 204.055 65.602,203.890 65.645,204.152 65.695 M105.095 83.128 C 105.297 83.181,105.628 83.181,105.830 83.128 C 106.032 83.075,105.867 83.032,105.462 83.032 C 105.058 83.032,104.892 83.075,105.095 83.128 M172.738 88.866 C 172.738 89.270,172.781 89.435,172.834 89.233 C 172.887 89.031,172.887 88.700,172.834 88.498 C 172.781 88.296,172.738 88.461,172.738 88.866 M170.890 93.120 L 170.273 93.803 170.956 93.185 C 171.331 92.846,171.639 92.539,171.639 92.503 C 171.639 92.340,171.465 92.483,170.890 93.120 M83.924 135.609 C 83.924 145.084,83.950 148.929,83.981 144.154 C 84.013 139.380,84.013 131.627,83.981 126.928 C 83.950 122.228,83.924 126.134,83.924 135.609 M261.502 146.586 C 270.890 146.616,286.253 146.616,295.641 146.586 C 305.029 146.556,297.348 146.531,278.571 146.531 C 259.795 146.531,252.114 146.556,261.502 146.586 M239.334 152.311 C 239.334 152.715,239.378 152.881,239.431 152.679 C 239.483 152.476,239.483 152.145,239.431 151.943 C 239.378 151.741,239.334 151.907,239.334 152.311 M261.922 158.351 C 271.426 158.381,286.977 158.381,296.481 158.351 C 305.985 158.321,298.209 158.296,279.202 158.296 C 260.194 158.296,252.419 158.321,261.922 158.351 " stroke="none" fill="#b4ebb2" fill-rule="evenodd"></path><path id="path3" d="M121.171 48.840 C 120.085 49.139,118.681 49.913,117.851 50.671 C 117.107 51.350,115.894 52.939,116.022 53.067 C 116.081 53.125,116.329 52.849,116.574 52.452 C 120.066 46.802,129.190 47.938,131.464 54.307 C 131.588 54.653,131.697 54.809,131.706 54.654 C 131.729 54.262,131.117 52.984,130.485 52.101 C 128.410 49.204,124.641 47.885,121.171 48.840 M148.392 48.690 C 148.259 48.775,149.218 48.845,150.525 48.845 C 151.832 48.845,152.792 48.775,152.659 48.690 C 152.525 48.605,151.565 48.536,150.525 48.536 C 149.485 48.536,148.525 48.605,148.392 48.690 M175.282 48.690 C 175.149 48.775,175.858 48.818,176.858 48.785 C 179.626 48.693,179.966 48.596,177.626 48.564 C 176.471 48.549,175.416 48.605,175.282 48.690 M202.101 48.737 C 201.886 48.874,202.054 48.897,202.626 48.809 C 203.665 48.650,203.841 48.528,203.029 48.533 C 202.692 48.534,202.274 48.626,202.101 48.737 M93.896 49.035 C 84.842 52.483,86.925 65.441,96.534 65.441 C 104.127 65.441,107.764 56.719,102.494 51.146 C 100.546 49.087,96.420 48.074,93.896 49.035 M146.586 49.384 C 146.153 49.613,145.798 49.847,145.798 49.904 C 145.798 49.998,147.458 49.222,147.672 49.029 C 147.913 48.810,147.282 49.017,146.586 49.384 M153.379 49.029 C 153.594 49.223,155.252 49.998,155.252 49.903 C 155.252 49.784,153.667 48.950,153.440 48.950 C 153.358 48.950,153.331 48.985,153.379 49.029 M173.477 49.384 C 173.044 49.613,172.689 49.847,172.689 49.904 C 172.689 49.998,174.348 49.222,174.562 49.029 C 174.804 48.810,174.173 49.017,173.477 49.384 M199.475 50.000 C 199.128 50.230,198.939 50.416,199.055 50.414 C 199.265 50.411,200.408 49.592,200.210 49.586 C 200.152 49.584,199.821 49.770,199.475 50.000 M144.358 51.143 C 143.764 51.771,143.277 52.354,143.277 52.438 C 143.277 52.522,143.307 52.552,143.342 52.504 C 143.378 52.455,143.912 51.872,144.528 51.208 C 145.145 50.544,145.602 50.000,145.544 50.000 C 145.486 50.000,144.953 50.514,144.358 51.143 M156.441 51.063 C 157.029 51.705,157.667 52.532,157.857 52.901 C 158.048 53.270,158.255 53.571,158.317 53.571 C 158.626 53.571,157.374 51.799,156.437 50.907 L 155.372 49.895 156.441 51.063 M171.429 50.945 C 170.918 51.465,170.548 51.891,170.606 51.891 C 170.664 51.891,171.128 51.465,171.639 50.945 C 172.149 50.425,172.519 50.000,172.461 50.000 C 172.404 50.000,171.939 50.425,171.429 50.945 M183.395 50.893 C 183.910 51.442,184.359 51.891,184.392 51.891 C 184.550 51.891,184.383 51.702,183.456 50.832 L 182.458 49.895 183.395 50.893 M115.552 53.871 C 115.221 54.742,115.312 55.031,115.663 54.222 C 115.833 53.829,115.927 53.462,115.870 53.405 C 115.814 53.349,115.671 53.559,115.552 53.871 M142.363 54.151 C 142.309 54.238,142.209 54.687,142.141 55.149 C 142.001 56.092,142.102 55.952,142.408 54.779 C 142.602 54.036,142.584 53.793,142.363 54.151 M158.633 54.745 C 158.949 55.953,159.050 56.099,158.913 55.147 C 158.846 54.685,158.707 54.220,158.604 54.115 C 158.502 54.009,158.515 54.292,158.633 54.745 M185.855 55.357 C 186.014 56.396,186.136 56.572,186.131 55.760 C 186.129 55.423,186.038 55.005,185.927 54.832 C 185.790 54.617,185.767 54.785,185.855 55.357 M169.035 55.164 C 168.865 55.608,168.899 58.623,169.080 59.079 C 169.158 59.278,169.223 58.403,169.223 57.136 C 169.223 54.652,169.224 54.671,169.035 55.164 M115.043 55.374 C 114.873 55.819,114.908 58.413,115.091 58.875 C 115.170 59.076,115.236 58.296,115.236 57.142 C 115.236 54.884,115.235 54.876,115.043 55.374 M131.861 56.308 C 132.009 58.000,131.547 59.985,130.675 61.397 C 130.337 61.946,130.135 62.395,130.227 62.395 C 131.251 62.395,132.590 56.852,131.927 55.357 C 131.808 55.089,131.784 55.433,131.861 56.308 M195.866 57.143 C 195.866 57.894,195.904 58.201,195.950 57.826 C 195.997 57.450,195.997 56.836,195.950 56.460 C 195.904 56.085,195.866 56.392,195.866 57.143 M213.088 57.143 C 213.088 57.778,213.128 58.038,213.176 57.721 C 213.224 57.403,213.224 56.883,213.176 56.565 C 213.128 56.247,213.088 56.507,213.088 57.143 M185.956 58.229 C 185.939 58.537,185.870 58.962,185.803 59.174 C 185.689 59.538,185.696 59.538,185.922 59.186 C 186.054 58.981,186.122 58.555,186.074 58.240 L 185.987 57.668 185.956 58.229 M158.759 58.981 C 158.695 59.299,158.575 59.748,158.492 59.979 C 158.387 60.273,158.409 60.336,158.566 60.189 C 158.798 59.972,159.160 58.403,158.978 58.403 C 158.922 58.403,158.824 58.663,158.759 58.981 M115.346 59.634 C 115.325 60.245,116.702 62.436,117.682 63.352 C 120.951 66.410,126.533 66.392,129.412 63.314 L 130.147 62.528 129.260 63.264 C 124.859 66.919,118.260 65.625,115.961 60.656 C 115.628 59.937,115.351 59.477,115.346 59.634 M184.172 62.447 C 183.509 63.371,183.487 63.431,184.037 62.815 C 184.655 62.123,185.181 61.345,185.031 61.345 C 184.994 61.345,184.607 61.841,184.172 62.447 M182.499 63.988 C 182.175 64.267,181.986 64.493,182.079 64.489 C 182.311 64.479,183.272 63.664,183.171 63.563 C 183.125 63.518,182.823 63.709,182.499 63.988 M145.402 64.046 C 146.048 64.549,147.282 65.183,147.396 65.069 C 147.444 65.021,147.104 64.811,146.640 64.601 C 146.176 64.392,145.690 64.094,145.561 63.938 C 145.432 63.783,145.231 63.655,145.114 63.655 C 144.997 63.655,145.127 63.831,145.402 64.046 M155.147 64.187 C 154.325 64.861,154.547 64.856,155.462 64.181 C 155.854 63.892,156.085 63.659,155.976 63.663 C 155.867 63.667,155.494 63.903,155.147 64.187 M148.004 65.392 C 148.263 65.551,149.230 65.650,150.525 65.650 C 151.820 65.650,152.787 65.551,153.046 65.392 C 153.409 65.168,153.367 65.154,152.731 65.287 C 152.327 65.372,151.334 65.441,150.525 65.441 C 149.716 65.441,148.724 65.372,148.319 65.287 C 147.684 65.154,147.641 65.168,148.004 65.392 M174.790 65.327 C 174.963 65.444,175.286 65.541,175.508 65.543 C 176.045 65.547,175.878 65.427,175.105 65.254 C 174.645 65.151,174.560 65.171,174.790 65.327 M179.622 65.336 C 179.189 65.475,179.171 65.507,179.517 65.522 C 179.748 65.532,180.079 65.448,180.252 65.336 C 180.620 65.098,180.365 65.098,179.622 65.336 M176.733 65.699 C 177.166 65.745,177.876 65.745,178.309 65.699 C 178.742 65.654,178.388 65.617,177.521 65.617 C 176.654 65.617,176.300 65.654,176.733 65.699 M102.261 83.342 C 102.522 83.392,102.900 83.390,103.101 83.338 C 103.302 83.285,103.088 83.244,102.626 83.246 C 102.164 83.249,102.000 83.292,102.261 83.342 M99.370 83.833 C 99.140 83.989,99.225 84.008,99.685 83.905 C 100.457 83.733,100.625 83.612,100.088 83.617 C 99.866 83.618,99.543 83.716,99.370 83.833 M199.709 84.454 C 199.291 84.917,198.950 85.361,198.950 85.442 C 198.950 85.522,199.021 85.498,199.108 85.389 C 199.195 85.279,199.591 84.835,199.989 84.401 C 200.387 83.968,200.658 83.613,200.591 83.613 C 200.524 83.613,200.127 83.992,199.709 84.454 M170.588 84.099 C 170.588 84.136,170.895 84.443,171.271 84.782 L 171.954 85.399 171.337 84.716 C 170.762 84.080,170.588 83.937,170.588 84.099 M210.819 120.588 C 210.819 139.054,210.889 154.052,210.974 153.919 C 211.059 153.786,211.128 138.787,211.128 120.588 C 211.128 102.390,211.059 87.391,210.974 87.257 C 210.889 87.124,210.819 102.123,210.819 120.588 M244.522 87.553 L 244.013 88.130 244.643 87.605 C 244.989 87.316,245.313 87.056,245.361 87.027 C 245.409 86.998,245.354 86.975,245.240 86.975 C 245.125 86.975,244.802 87.235,244.522 87.553 M172.787 88.866 C 172.787 90.017,172.813 90.109,172.979 89.533 C 173.094 89.131,173.094 88.600,172.979 88.198 C 172.813 87.622,172.787 87.714,172.787 88.866 M197.964 120.588 C 197.944 138.671,197.993 153.628,198.071 153.826 C 198.201 154.152,198.189 114.249,198.054 95.378 C 198.024 91.161,197.983 102.505,197.964 120.588 M242.325 89.548 L 241.071 90.861 242.384 89.607 C 243.107 88.918,243.697 88.327,243.697 88.294 C 243.697 88.139,243.490 88.329,242.325 89.548 M81.298 93.435 L 79.517 95.273 81.355 93.492 C 83.062 91.838,83.289 91.597,83.136 91.597 C 83.105 91.597,82.277 92.424,81.298 93.435 M171.232 92.913 C 170.634 93.651,170.610 93.713,171.094 93.277 C 171.597 92.825,172.193 92.009,172.014 92.021 C 171.981 92.023,171.629 92.424,171.232 92.913 M105.777 94.967 C 105.267 95.065,105.638 95.083,106.723 95.016 C 107.705 94.954,108.548 94.869,108.596 94.826 C 108.744 94.694,106.667 94.798,105.777 94.967 M256.828 94.958 L 256.408 95.139 256.828 95.132 C 257.059 95.129,257.484 95.050,257.773 94.958 L 258.298 94.790 257.773 94.784 C 257.484 94.780,257.059 94.859,256.828 94.958 M78.903 95.962 L 78.500 96.534 79.061 96.024 C 79.650 95.489,79.723 95.374,79.464 95.385 C 79.378 95.388,79.125 95.648,78.903 95.962 M92.109 100.473 L 91.492 101.155 92.174 100.538 C 92.550 100.199,92.857 99.892,92.857 99.856 C 92.857 99.693,92.684 99.836,92.109 100.473 M236.217 104.727 C 236.218 106.345,236.251 106.979,236.291 106.136 C 236.331 105.293,236.330 103.969,236.290 103.195 C 236.250 102.420,236.217 103.109,236.217 104.727 M89.588 102.994 L 88.971 103.676 89.653 103.059 C 90.029 102.720,90.336 102.413,90.336 102.377 C 90.336 102.214,90.163 102.357,89.588 102.994 M72.479 108.403 C 72.348 108.889,72.282 109.327,72.333 109.377 C 72.383 109.428,72.526 109.067,72.651 108.575 C 72.776 108.084,72.841 107.645,72.797 107.601 C 72.753 107.557,72.610 107.918,72.479 108.403 M71.980 110.407 C 71.908 110.595,71.857 110.906,71.867 111.099 C 71.877 111.292,71.968 111.171,72.070 110.830 C 72.268 110.167,72.198 109.839,71.980 110.407 M252.386 112.137 C 252.553 112.406,253.782 113.315,253.782 113.169 C 253.782 113.118,253.434 112.810,253.010 112.487 C 252.586 112.163,252.305 112.006,252.386 112.137 M84.680 113.251 C 84.551 113.854,84.485 114.387,84.534 114.436 C 84.583 114.485,84.729 114.032,84.858 113.429 C 84.987 112.827,85.053 112.294,85.004 112.245 C 84.955 112.196,84.809 112.649,84.680 113.251 M71.349 113.559 C 71.277 113.746,71.228 114.152,71.240 114.460 C 71.257 114.911,71.298 114.861,71.453 114.201 C 71.650 113.361,71.584 112.948,71.349 113.559 M316.387 114.997 C 316.387 115.042,316.665 115.119,317.006 115.169 C 317.346 115.219,317.577 115.183,317.519 115.088 C 317.414 114.920,316.387 114.837,316.387 114.997 M84.148 116.291 C 84.068 116.827,84.045 117.308,84.098 117.361 C 84.150 117.413,84.259 117.018,84.339 116.482 C 84.420 115.946,84.442 115.465,84.390 115.412 C 84.337 115.360,84.229 115.755,84.148 116.291 M91.847 116.313 L 90.861 117.289 91.912 116.382 C 92.489 115.883,93.002 115.443,93.050 115.405 C 93.098 115.367,93.069 115.336,92.985 115.336 C 92.901 115.336,92.389 115.776,91.847 116.313 M240.107 117.402 C 240.220 117.613,240.478 117.921,240.680 118.085 C 240.907 118.269,240.856 118.122,240.547 117.700 C 239.995 116.946,239.788 116.806,240.107 117.402 M70.899 135.714 C 70.899 145.478,70.924 149.472,70.956 144.590 C 70.987 139.709,70.987 131.720,70.956 126.838 C 70.924 121.956,70.899 125.951,70.899 135.714 M90.051 119.162 C 89.980 119.426,89.931 119.879,89.942 120.168 C 89.954 120.478,90.037 120.310,90.145 119.761 C 90.338 118.777,90.270 118.344,90.051 119.162 M241.717 119.348 C 242.055 119.763,242.374 120.067,242.426 120.024 C 242.478 119.980,242.201 119.640,241.811 119.268 L 241.102 118.592 241.717 119.348 M160.133 120.588 C 160.133 120.993,160.176 121.158,160.229 120.956 C 160.282 120.754,160.282 120.423,160.229 120.221 C 160.176 120.018,160.133 120.184,160.133 120.588 M89.931 121.236 C 89.939 121.515,90.031 121.933,90.136 122.164 C 90.269 122.457,90.287 122.329,90.198 121.744 C 90.050 120.768,89.909 120.502,89.931 121.236 M110.242 126.628 C 118.474 126.659,131.946 126.659,140.179 126.628 C 148.411 126.598,141.675 126.573,125.210 126.573 C 108.745 126.573,102.009 126.598,110.242 126.628 M271.182 126.628 C 278.962 126.659,291.630 126.659,299.334 126.628 C 307.037 126.598,300.672 126.573,285.189 126.573 C 269.706 126.573,263.403 126.598,271.182 126.628 M334.824 135.609 C 334.920 139.405,335.035 139.921,335.035 136.555 C 335.035 135.110,334.970 133.645,334.891 133.298 C 334.813 132.952,334.782 133.992,334.824 135.609 M321.912 136.555 C 321.912 137.190,321.951 137.450,321.999 137.132 C 322.047 136.815,322.047 136.295,321.999 135.977 C 321.951 135.659,321.912 135.919,321.912 136.555 M334.692 139.636 C 334.677 139.887,334.609 140.265,334.543 140.477 C 334.429 140.841,334.435 140.841,334.662 140.488 C 334.794 140.282,334.861 139.904,334.811 139.647 C 334.721 139.181,334.721 139.181,334.692 139.636 M318.789 143.750 L 318.172 144.433 318.855 143.816 C 319.491 143.241,319.634 143.067,319.472 143.067 C 319.436 143.067,319.129 143.374,318.789 143.750 M262.149 146.376 C 271.777 146.406,287.471 146.406,297.023 146.376 C 306.575 146.346,298.697 146.321,279.517 146.321 C 260.336 146.321,252.521 146.346,262.149 146.376 M241.326 147.920 L 240.441 148.782 241.439 147.981 C 241.988 147.540,242.437 147.153,242.437 147.119 C 242.437 146.922,242.108 147.159,241.326 147.920 M239.321 153.256 C 239.318 153.487,239.396 153.866,239.496 154.097 C 239.726 154.632,239.726 154.080,239.496 153.361 C 239.361 152.939,239.326 152.919,239.321 153.256 M316.387 157.983 C 315.964 158.118,315.944 158.153,316.282 158.158 C 316.513 158.161,316.891 158.082,317.122 157.983 C 317.657 157.753,317.105 157.753,316.387 157.983 M313.918 158.338 C 314.120 158.391,314.451 158.391,314.653 158.338 C 314.856 158.285,314.690 158.242,314.286 158.242 C 313.881 158.242,313.716 158.285,313.918 158.338 " stroke="none" fill="#dbf4da" fill-rule="evenodd"></path><path id="path4" d="M148.197 49.040 C 138.950 52.089,140.840 65.231,150.525 65.231 C 161.353 65.231,161.666 49.135,150.844 48.811 C 149.764 48.778,148.715 48.869,148.197 49.040 M175.315 48.950 L 174.895 49.130 175.315 49.124 C 175.546 49.121,175.972 49.042,176.261 48.950 L 176.786 48.781 176.261 48.775 C 175.972 48.772,175.546 48.850,175.315 48.950 M179.412 49.054 C 180.047 49.208,180.600 49.301,180.639 49.262 C 180.751 49.151,179.148 48.740,178.676 48.759 C 178.445 48.768,178.776 48.901,179.412 49.054 M206.408 48.950 C 206.639 49.049,206.970 49.130,207.143 49.130 C 207.341 49.130,207.303 49.063,207.038 48.950 C 206.807 48.850,206.476 48.769,206.303 48.769 C 206.104 48.769,206.143 48.836,206.408 48.950 M172.363 50.407 C 171.449 51.088,170.628 52.060,170.095 53.090 C 169.519 54.203,169.709 54.171,170.357 53.046 C 171.032 51.874,171.603 51.218,172.689 50.369 C 173.677 49.597,173.408 49.629,172.363 50.407 M198.774 50.980 L 197.584 52.169 198.845 51.045 C 199.538 50.426,200.144 49.891,200.193 49.855 C 200.241 49.819,200.209 49.790,200.122 49.790 C 200.034 49.790,199.428 50.325,198.774 50.980 M182.719 50.558 C 183.094 50.886,183.694 51.486,184.051 51.891 L 184.702 52.626 184.038 51.737 C 183.673 51.248,183.074 50.648,182.706 50.404 L 182.038 49.960 182.719 50.558 M196.628 53.916 C 196.512 54.221,196.456 54.509,196.503 54.557 C 196.551 54.604,196.691 54.355,196.814 54.002 C 197.087 53.219,196.922 53.142,196.628 53.916 M185.324 54.202 C 185.324 54.375,185.405 54.706,185.504 54.937 C 185.618 55.202,185.685 55.241,185.685 55.042 C 185.685 54.869,185.604 54.538,185.504 54.307 C 185.390 54.042,185.324 54.003,185.324 54.202 M169.471 54.492 C 169.392 54.698,169.334 55.024,169.341 55.217 C 169.350 55.449,169.423 55.396,169.557 55.060 C 169.669 54.781,169.727 54.455,169.687 54.335 C 169.648 54.216,169.550 54.286,169.471 54.492 M212.710 57.038 C 212.710 58.242,212.774 59.066,212.853 58.868 C 212.931 58.670,212.996 57.847,212.996 57.038 C 212.996 56.229,212.931 55.405,212.853 55.207 C 212.774 55.010,212.710 55.833,212.710 57.038 M196.140 55.699 C 195.978 56.506,196.003 58.131,196.187 58.783 C 196.262 59.050,196.324 58.318,196.324 57.155 C 196.324 54.793,196.323 54.784,196.140 55.699 M185.763 56.092 C 185.763 56.497,185.806 56.662,185.859 56.460 C 185.912 56.258,185.912 55.927,185.859 55.725 C 185.806 55.523,185.763 55.688,185.763 56.092 M169.188 57.143 C 169.188 58.009,169.225 58.364,169.271 57.931 C 169.316 57.497,169.316 56.788,169.271 56.355 C 169.225 55.922,169.188 56.276,169.188 57.143 M185.746 57.880 C 185.728 58.227,185.621 58.835,185.508 59.231 C 185.394 59.627,185.341 59.991,185.389 60.039 C 185.557 60.207,185.949 58.367,185.863 57.810 C 185.780 57.265,185.776 57.268,185.746 57.880 M169.357 59.034 C 169.357 59.207,169.439 59.538,169.538 59.769 C 169.652 60.034,169.718 60.073,169.718 59.874 C 169.718 59.701,169.637 59.370,169.538 59.139 C 169.424 58.874,169.357 58.835,169.357 59.034 M197.223 61.455 C 197.344 61.689,197.835 62.304,198.313 62.821 C 199.163 63.738,199.160 63.731,198.198 62.500 C 197.022 60.995,196.936 60.902,197.223 61.455 M170.600 61.870 C 171.101 62.615,171.938 63.473,172.584 63.905 C 173.114 64.259,173.097 64.224,172.479 63.691 C 172.075 63.341,171.423 62.694,171.030 62.253 C 170.638 61.811,170.444 61.639,170.600 61.870 M184.033 62.237 C 183.724 62.660,183.673 62.807,183.900 62.622 C 184.244 62.343,184.765 61.555,184.606 61.555 C 184.566 61.555,184.308 61.862,184.033 62.237 M210.084 63.279 C 209.449 63.871,209.118 64.253,209.349 64.127 C 209.753 63.908,211.530 62.176,211.335 62.193 C 211.282 62.197,210.720 62.686,210.084 63.279 M182.563 63.687 C 182.159 64.042,182.018 64.236,182.250 64.118 C 182.634 63.924,183.586 63.013,183.383 63.034 C 183.337 63.038,182.967 63.332,182.563 63.687 M174.685 65.029 C 175.032 65.187,175.457 65.314,175.630 65.311 C 175.804 65.307,175.614 65.177,175.210 65.021 C 174.251 64.652,173.874 64.657,174.685 65.029 M179.832 65.021 C 179.428 65.177,179.238 65.307,179.412 65.311 C 179.585 65.314,180.011 65.187,180.357 65.029 C 181.168 64.657,180.791 64.652,179.832 65.021 M176.838 65.488 C 177.214 65.535,177.828 65.535,178.204 65.488 C 178.579 65.442,178.272 65.403,177.521 65.403 C 176.770 65.403,176.463 65.442,176.838 65.488 M203.735 65.490 C 204.229 65.535,204.985 65.534,205.415 65.489 C 205.845 65.444,205.441 65.407,204.517 65.408 C 203.592 65.409,203.240 65.446,203.735 65.490 M205.095 82.708 C 205.297 82.761,205.628 82.761,205.830 82.708 C 206.032 82.655,205.867 82.612,205.462 82.612 C 205.058 82.612,204.892 82.655,205.095 82.708 M113.235 83.138 C 131.051 83.273,168.648 83.285,168.322 83.156 C 168.124 83.077,154.018 83.028,136.975 83.048 C 119.932 83.067,109.249 83.107,113.235 83.138 M264.391 83.138 C 284.580 83.273,327.471 83.285,327.146 83.156 C 326.948 83.077,310.903 83.029,291.492 83.048 C 272.080 83.067,259.884 83.108,264.391 83.138 M104.572 83.342 C 104.833 83.392,105.211 83.390,105.412 83.338 C 105.613 83.285,105.399 83.244,104.937 83.246 C 104.475 83.249,104.310 83.292,104.572 83.342 M101.471 83.613 C 100.762 83.763,100.758 83.768,101.366 83.771 C 101.712 83.773,102.279 83.702,102.626 83.613 C 103.498 83.392,102.525 83.392,101.471 83.613 M207.878 83.536 C 207.994 83.637,208.466 84.050,208.928 84.454 L 209.768 85.189 209.138 84.488 C 208.792 84.103,208.319 83.689,208.088 83.570 C 207.857 83.450,207.763 83.435,207.878 83.536 M327.941 83.456 C 327.999 83.521,328.565 83.923,329.200 84.349 C 329.834 84.775,330.191 84.944,329.992 84.725 C 329.794 84.506,329.228 84.104,328.734 83.832 C 328.240 83.560,327.883 83.391,327.941 83.456 M98.319 84.244 C 97.897 84.379,97.877 84.413,98.214 84.418 C 98.445 84.421,98.824 84.343,99.055 84.244 C 99.590 84.014,99.038 84.014,98.319 84.244 M171.023 84.761 C 171.295 85.255,172.058 86.178,172.053 86.005 C 172.050 85.903,171.790 85.532,171.475 85.181 C 171.161 84.830,170.957 84.641,171.023 84.761 M172.294 86.980 C 172.612 87.920,172.792 88.103,172.599 87.290 C 172.517 86.943,172.359 86.567,172.248 86.454 C 172.138 86.341,172.159 86.578,172.294 86.980 M245.851 86.789 C 245.135 87.247,244.903 87.555,245.536 87.208 C 246.018 86.943,246.773 86.359,246.639 86.355 C 246.581 86.353,246.226 86.548,245.851 86.789 M331.398 88.701 C 331.403 89.591,331.472 90.157,331.550 89.960 C 331.732 89.503,331.724 88.286,331.535 87.606 C 331.449 87.298,331.393 87.750,331.398 88.701 M210.817 120.588 C 210.817 138.671,210.842 146.069,210.872 137.027 C 210.902 127.986,210.902 113.191,210.872 104.149 C 210.842 95.108,210.817 102.505,210.817 120.588 M87.868 88.470 C 87.152 88.928,86.920 89.236,87.553 88.888 C 88.035 88.623,88.790 88.039,88.655 88.035 C 88.598 88.034,88.243 88.229,87.868 88.470 M198.212 120.693 C 198.212 138.603,198.236 145.961,198.267 137.044 C 198.297 128.127,198.297 113.474,198.267 104.481 C 198.236 95.488,198.212 102.784,198.212 120.693 M242.437 89.601 C 241.927 90.121,241.556 90.546,241.614 90.546 C 241.672 90.546,242.137 90.121,242.647 89.601 C 243.157 89.081,243.528 88.655,243.470 88.655 C 243.412 88.655,242.947 89.081,242.437 89.601 M86.078 89.608 C 85.647 89.901,85.294 90.186,85.294 90.242 C 85.294 90.297,85.672 90.092,86.134 89.786 C 86.868 89.300,87.116 89.076,86.919 89.076 C 86.888 89.076,86.509 89.315,86.078 89.608 M84.034 91.194 L 83.088 92.051 84.086 91.273 C 84.961 90.592,85.220 90.335,85.032 90.337 C 85.003 90.337,84.554 90.723,84.034 91.194 M171.447 92.307 L 170.939 92.962 171.541 92.391 C 171.871 92.077,172.099 91.782,172.048 91.736 C 171.996 91.690,171.726 91.947,171.447 92.307 M240.296 92.174 C 239.925 92.605,239.648 93.067,239.759 93.067 C 239.802 93.067,240.047 92.784,240.303 92.437 C 240.809 91.752,240.805 91.582,240.296 92.174 M81.402 93.540 L 79.937 95.063 81.460 93.598 C 82.298 92.792,82.983 92.107,82.983 92.075 C 82.983 91.921,82.763 92.125,81.402 93.540 M328.727 93.679 C 327.864 94.233,327.744 94.428,328.506 94.041 C 328.874 93.854,329.234 93.605,329.306 93.489 C 329.474 93.216,329.424 93.233,328.727 93.679 M292.227 94.538 L 257.458 94.645 292.122 94.682 C 311.187 94.702,326.975 94.637,327.206 94.538 C 327.437 94.439,327.484 94.374,327.311 94.394 C 327.138 94.414,311.350 94.479,292.227 94.538 M122.111 94.695 C 130.517 94.726,144.273 94.726,152.679 94.695 C 161.085 94.665,154.207 94.640,137.395 94.640 C 120.583 94.640,113.705 94.665,122.111 94.695 M102.836 95.178 C 102.543 95.311,102.671 95.329,103.256 95.240 C 103.718 95.170,104.136 95.078,104.184 95.035 C 104.365 94.876,103.239 94.995,102.836 95.178 M237.628 97.082 C 237.499 97.453,237.430 97.794,237.475 97.839 C 237.520 97.884,237.662 97.617,237.792 97.246 C 237.921 96.874,237.990 96.534,237.945 96.489 C 237.900 96.444,237.758 96.711,237.628 97.082 M251.818 97.673 C 251.165 98.358,250.630 98.988,250.630 99.074 C 250.630 99.160,250.659 99.190,250.694 99.142 C 250.728 99.094,251.310 98.464,251.986 97.742 C 252.662 97.019,253.168 96.429,253.110 96.429 C 253.052 96.429,252.471 96.989,251.818 97.673 M237.106 98.643 C 237.034 98.830,236.983 99.142,236.993 99.334 C 237.003 99.527,237.094 99.406,237.196 99.065 C 237.394 98.402,237.324 98.074,237.106 98.643 M90.643 101.523 L 89.601 102.626 90.704 101.584 C 91.310 101.010,91.807 100.514,91.807 100.481 C 91.807 100.324,91.612 100.498,90.643 101.523 M236.441 101.988 C 236.360 102.638,236.339 103.216,236.395 103.271 C 236.450 103.327,236.558 102.836,236.635 102.182 C 236.712 101.527,236.733 100.949,236.682 100.898 C 236.631 100.847,236.523 101.337,236.441 101.988 M249.084 102.775 C 249.013 103.040,248.964 103.493,248.975 103.782 C 248.987 104.091,249.071 103.924,249.178 103.375 C 249.371 102.391,249.303 101.957,249.084 102.775 M74.614 103.265 C 74.262 104.038,74.329 104.203,74.710 103.500 C 74.887 103.172,74.994 102.865,74.946 102.817 C 74.897 102.769,74.748 102.971,74.614 103.265 M88.315 104.254 C 87.592 105.481,87.545 105.586,87.913 105.147 C 88.340 104.639,88.708 103.992,88.570 103.992 C 88.515 103.992,88.401 104.110,88.315 104.254 M248.998 105.882 C 248.998 106.287,249.042 106.452,249.094 106.250 C 249.147 106.048,249.147 105.717,249.094 105.515 C 249.042 105.313,248.998 105.478,248.998 105.882 M236.369 106.740 C 236.383 107.135,236.471 107.742,236.565 108.088 C 236.678 108.503,236.696 108.287,236.619 107.458 C 236.490 106.069,236.330 105.610,236.369 106.740 M250.821 110.679 C 250.935 110.891,251.193 111.198,251.394 111.362 C 251.621 111.546,251.570 111.399,251.261 110.977 C 250.709 110.223,250.502 110.083,250.821 110.679 M84.784 111.885 C 84.707 112.193,84.684 112.485,84.733 112.535 C 84.783 112.584,84.887 112.373,84.964 112.065 C 85.041 111.757,85.064 111.465,85.014 111.415 C 84.965 111.365,84.861 111.577,84.784 111.885 M71.755 112.512 C 71.676 112.933,71.654 113.320,71.705 113.372 C 71.756 113.423,71.863 113.120,71.942 112.698 C 72.021 112.277,72.044 111.890,71.993 111.838 C 71.941 111.787,71.834 112.090,71.755 112.512 M252.714 112.681 C 252.994 113.026,253.782 113.547,253.782 113.387 C 253.782 113.347,253.474 113.089,253.099 112.814 C 252.676 112.505,252.530 112.454,252.714 112.681 M84.378 113.490 C 84.307 113.754,84.258 114.160,84.268 114.391 C 84.278 114.622,84.372 114.442,84.478 113.991 C 84.683 113.118,84.595 112.679,84.378 113.490 M94.788 114.884 C 94.521 114.960,108.164 115.021,125.105 115.021 C 142.046 115.021,155.689 114.960,155.422 114.884 C 155.155 114.809,141.513 114.748,125.105 114.748 C 108.697 114.748,95.055 114.809,94.788 114.884 M260.714 114.857 C 268.702 114.988,315.774 115.009,314.811 114.882 C 314.233 114.805,301.045 114.756,285.504 114.771 C 269.963 114.787,258.808 114.826,260.714 114.857 M93.225 115.456 C 92.410 115.898,92.503 116.051,93.330 115.630 C 94.122 115.227,94.262 115.123,93.995 115.134 C 93.889 115.139,93.543 115.284,93.225 115.456 M156.513 115.441 C 156.801 115.606,157.132 115.741,157.248 115.741 C 157.363 115.741,157.222 115.606,156.933 115.441 C 156.644 115.276,156.313 115.141,156.197 115.141 C 156.082 115.141,156.224 115.276,156.513 115.441 M71.146 117.489 C 70.970 119.744,71.008 153.107,71.187 153.740 C 71.262 154.006,71.324 145.569,71.324 134.990 C 71.324 124.412,71.314 115.756,71.302 115.756 C 71.290 115.756,71.220 116.536,71.146 117.489 M157.813 116.186 C 158.008 116.300,158.409 116.699,158.704 117.073 C 158.998 117.446,159.240 117.684,159.241 117.602 C 159.245 117.336,157.948 115.966,157.699 115.973 C 157.566 115.976,157.618 116.072,157.813 116.186 M239.876 116.702 C 239.997 116.933,240.396 117.453,240.761 117.857 L 241.425 118.592 240.738 117.647 C 239.897 116.489,239.582 116.144,239.876 116.702 M83.881 117.647 C 83.881 118.167,83.922 118.380,83.972 118.120 C 84.022 117.860,84.022 117.434,83.972 117.174 C 83.922 116.914,83.881 117.127,83.881 117.647 M83.714 136.134 C 83.714 145.783,83.739 149.730,83.771 144.905 C 83.802 140.081,83.802 132.188,83.771 127.363 C 83.739 122.539,83.714 126.486,83.714 136.134 M242.542 119.958 C 243.111 120.536,243.624 121.008,243.682 121.008 C 243.739 121.008,243.321 120.536,242.752 119.958 C 242.183 119.380,241.670 118.908,241.612 118.908 C 241.555 118.908,241.973 119.380,242.542 119.958 M159.941 120.588 C 159.941 121.339,159.979 121.647,160.026 121.271 C 160.073 120.895,160.073 120.281,160.026 119.905 C 159.979 119.530,159.941 119.837,159.941 120.588 M327.454 120.440 C 328.058 120.994,329.042 121.987,329.639 122.646 C 330.245 123.314,330.442 123.472,330.085 123.004 C 329.440 122.157,327.568 120.309,326.780 119.740 C 326.546 119.571,326.849 119.886,327.454 120.440 M90.186 120.693 C 90.188 121.271,90.229 121.482,90.277 121.163 C 90.325 120.844,90.324 120.371,90.274 120.113 C 90.224 119.854,90.185 120.116,90.186 120.693 M91.133 123.845 C 91.252 124.076,91.666 124.548,92.051 124.895 L 92.752 125.524 92.017 124.684 C 91.613 124.222,91.200 123.750,91.099 123.634 C 90.998 123.519,91.013 123.613,91.133 123.845 M158.182 124.737 L 157.458 125.525 158.246 124.801 C 158.979 124.127,159.130 123.950,158.970 123.950 C 158.935 123.950,158.580 124.304,158.182 124.737 M253.046 125.840 C 253.277 125.940,253.608 126.021,253.782 126.021 C 253.980 126.021,253.941 125.954,253.676 125.840 C 253.445 125.741,253.114 125.660,252.941 125.660 C 252.743 125.660,252.781 125.727,253.046 125.840 M110.032 126.418 C 118.380 126.448,132.040 126.448,140.389 126.418 C 148.737 126.388,141.907 126.363,125.210 126.363 C 108.514 126.363,101.683 126.388,110.032 126.418 M270.519 126.418 C 278.396 126.449,291.348 126.449,299.301 126.418 C 307.254 126.388,300.809 126.363,284.979 126.363 C 269.149 126.363,262.642 126.388,270.519 126.418 M317.227 127.789 C 317.227 127.829,317.534 128.087,317.910 128.362 C 318.332 128.671,318.479 128.722,318.295 128.495 C 318.015 128.151,317.227 127.630,317.227 127.789 M333.228 128.792 C 333.351 129.145,333.491 129.394,333.539 129.347 C 333.643 129.243,333.246 128.151,333.104 128.151 C 333.050 128.151,333.106 128.440,333.228 128.792 M319.538 129.700 C 319.538 129.788,319.793 130.208,320.104 130.634 C 320.845 131.647,321.113 131.928,320.839 131.408 C 320.521 130.801,319.538 129.511,319.538 129.700 M334.289 132.353 C 334.287 132.642,334.361 133.114,334.454 133.403 C 334.680 134.109,334.680 133.347,334.454 132.458 C 334.310 131.892,334.293 131.881,334.289 132.353 M334.742 136.555 C 334.742 137.768,334.776 138.264,334.819 137.658 C 334.861 137.051,334.861 136.058,334.819 135.452 C 334.776 134.845,334.742 135.341,334.742 136.555 M321.770 138.682 C 321.595 139.557,321.765 139.727,321.954 138.866 C 322.034 138.502,322.055 138.161,322.001 138.108 C 321.948 138.054,321.844 138.313,321.770 138.682 M334.349 140.126 C 334.268 140.604,334.246 141.039,334.300 141.093 C 334.354 141.146,334.461 140.797,334.538 140.315 C 334.615 139.834,334.637 139.399,334.587 139.349 C 334.537 139.298,334.429 139.648,334.349 140.126 M318.908 143.803 C 318.397 144.322,318.027 144.748,318.085 144.748 C 318.143 144.748,318.607 144.322,319.118 143.803 C 319.628 143.283,319.998 142.857,319.940 142.857 C 319.883 142.857,319.418 143.283,318.908 143.803 M332.597 145.702 C 332.245 146.475,332.312 146.640,332.693 145.937 C 332.871 145.609,332.977 145.302,332.929 145.254 C 332.881 145.206,332.731 145.407,332.597 145.702 M315.231 146.121 C 314.706 146.374,314.688 146.403,315.126 146.296 C 315.721 146.151,316.390 145.809,316.071 145.814 C 315.956 145.816,315.578 145.954,315.231 146.121 M312.975 146.577 C 313.236 146.627,313.615 146.625,313.815 146.573 C 314.016 146.520,313.803 146.479,313.340 146.482 C 312.878 146.484,312.714 146.527,312.975 146.577 M241.859 147.675 C 241.391 148.014,240.942 148.399,240.860 148.531 C 240.747 148.715,242.391 147.560,242.840 147.141 C 243.165 146.836,242.566 147.163,241.859 147.675 M330.672 149.002 C 330.362 149.425,330.312 149.571,330.539 149.387 C 330.883 149.107,331.404 148.319,331.244 148.319 C 331.204 148.319,330.947 148.627,330.672 149.002 M239.561 152.416 C 239.562 153.109,239.601 153.368,239.648 152.990 C 239.695 152.612,239.694 152.045,239.646 151.729 C 239.598 151.414,239.560 151.723,239.561 152.416 M326.681 153.187 C 326.130 153.687,325.999 153.868,326.366 153.621 C 326.946 153.230,327.909 152.299,327.711 152.320 C 327.664 152.325,327.201 152.715,326.681 153.187 M239.820 154.464 C 239.899 154.724,240.050 155.029,240.155 155.142 C 240.261 155.255,240.241 155.042,240.111 154.670 C 239.845 153.906,239.599 153.733,239.820 154.464 M72.225 155.987 C 72.345 156.218,72.758 156.691,73.144 157.037 L 73.845 157.667 73.110 156.827 C 72.706 156.365,72.292 155.893,72.191 155.777 C 72.090 155.662,72.105 155.756,72.225 155.987 M200.000 156.800 C 200.404 157.239,200.924 157.697,201.155 157.819 C 201.387 157.941,201.528 157.996,201.471 157.942 C 200.127 156.693,199.332 156.075,200.000 156.800 M317.437 157.563 C 317.015 157.698,316.994 157.732,317.332 157.737 C 317.563 157.741,317.941 157.662,318.172 157.563 C 318.708 157.333,318.155 157.333,317.437 157.563 M261.817 158.141 C 271.610 158.171,287.634 158.171,297.426 158.141 C 307.219 158.111,299.207 158.086,279.622 158.086 C 260.037 158.086,252.025 158.111,261.817 158.141 M77.048 158.762 C 77.308 158.812,77.734 158.812,77.994 158.762 C 78.254 158.712,78.041 158.671,77.521 158.671 C 77.001 158.671,76.788 158.712,77.048 158.762 M204.047 158.764 C 204.366 158.812,204.839 158.811,205.097 158.761 C 205.356 158.711,205.095 158.672,204.517 158.674 C 203.939 158.675,203.728 158.716,204.047 158.764 " stroke="none" fill="#a4e49c" fill-rule="evenodd"></path></g></svg>