<svg id="svg" version="1.1" xmlns="http://www.w3.org/2000/svg" xmlns:xlink="http://www.w3.org/1999/xlink" width="400" height="400" viewBox="0, 0, 400,400"><g id="svgg"><path id="path0" d="M156.172 137.506 C 155.767 137.785,153.006 142.441,145.045 156.277 C 141.883 161.773,141.595 162.443,142.040 163.277 C 142.311 163.785,145.265 168.880,148.605 174.600 C 155.464 186.347,156.143 187.591,155.852 187.881 C 155.738 187.995,156.085 188.785,156.623 189.636 C 157.160 190.487,157.600 191.368,157.600 191.592 C 157.600 191.816,157.735 192.001,157.900 192.003 C 158.065 192.005,158.387 192.410,158.617 192.903 C 159.203 194.165,160.960 197.360,161.200 197.600 C 161.310 197.710,161.642 198.230,161.938 198.755 C 162.233 199.280,162.818 200.315,163.238 201.055 C 163.657 201.795,164.343 203.005,164.762 203.745 C 165.182 204.485,165.767 205.520,166.062 206.045 C 166.358 206.570,166.690 207.090,166.800 207.200 C 166.910 207.310,167.377 208.120,167.838 209.000 C 168.300 209.880,169.050 211.254,169.505 212.053 C 170.031 212.975,170.200 213.670,169.968 213.955 C 169.767 214.201,169.901 214.142,170.265 213.823 C 171.000 213.181,170.700 212.713,180.514 229.800 L 185.108 237.800 200.007 237.800 L 214.906 237.800 217.689 233.000 C 228.685 214.032,229.729 212.000,228.475 212.000 C 228.296 212.000,227.902 211.370,227.600 210.600 C 227.298 209.830,226.948 209.200,226.823 209.200 C 226.698 209.200,226.341 208.615,226.030 207.900 C 225.719 207.185,225.360 206.510,225.232 206.400 C 225.104 206.290,224.626 205.480,224.170 204.600 C 223.035 202.414,222.243 201.039,221.979 200.800 C 221.858 200.690,221.448 199.933,221.069 199.119 C 220.690 198.304,220.160 197.404,219.890 197.119 C 219.445 196.647,218.170 194.403,217.040 192.103 C 216.798 191.610,216.465 191.205,216.300 191.203 C 216.135 191.201,216.000 190.840,216.000 190.400 C 216.000 189.960,215.841 189.600,215.647 189.600 C 215.452 189.600,215.193 189.285,215.071 188.900 C 214.854 188.215,213.596 185.996,213.200 185.600 C 213.090 185.490,212.626 184.680,212.170 183.800 C 211.096 181.731,210.252 180.252,210.000 180.000 C 209.604 179.604,208.346 177.385,208.129 176.700 C 208.007 176.315,207.748 176.000,207.553 176.000 C 207.359 176.000,207.200 175.640,207.200 175.200 C 207.200 174.760,207.041 174.400,206.847 174.400 C 206.652 174.400,206.393 174.085,206.271 173.700 C 206.054 173.015,204.796 170.796,204.400 170.400 C 204.200 170.200,202.669 167.390,201.840 165.703 C 201.598 165.210,201.265 164.805,201.100 164.803 C 200.935 164.801,200.800 164.633,200.800 164.428 C 200.800 164.224,199.920 162.649,198.844 160.928 C 197.768 159.208,194.338 153.390,191.222 148.000 C 188.105 142.610,185.261 137.975,184.901 137.700 C 184.173 137.143,156.968 136.959,156.172 137.506 M119.800 199.200 C 119.459 199.860,119.269 200.400,119.379 200.400 C 119.489 200.400,119.859 199.860,120.200 199.200 C 120.541 198.540,120.731 198.000,120.621 198.000 C 120.511 198.000,120.141 198.540,119.800 199.200 M112.267 212.267 C 111.904 212.630,111.928 214.308,112.300 214.538 C 112.465 214.640,112.600 214.111,112.600 213.362 C 112.600 212.613,112.585 212.000,112.567 212.000 C 112.548 212.000,112.413 212.120,112.267 212.267 M115.000 219.200 C 115.341 219.860,115.711 220.400,115.821 220.400 C 115.931 220.400,115.741 219.860,115.400 219.200 C 115.059 218.540,114.689 218.000,114.579 218.000 C 114.469 218.000,114.659 218.540,115.000 219.200 M158.253 234.100 L 157.533 235.400 158.358 234.400 C 159.089 233.513,159.414 232.800,159.086 232.800 C 159.024 232.800,158.649 233.385,158.253 234.100 M123.800 234.400 C 124.141 235.060,124.511 235.600,124.621 235.600 C 124.731 235.600,124.541 235.060,124.200 234.400 C 123.859 233.740,123.489 233.200,123.379 233.200 C 123.269 233.200,123.459 233.740,123.800 234.400 M156.439 237.024 C 155.977 237.807,155.780 238.336,156.002 238.199 C 156.436 237.931,157.734 235.600,157.450 235.600 C 157.356 235.600,156.901 236.241,156.439 237.024 M220.876 259.186 C 216.241 262.096,218.848 269.304,224.313 268.688 C 230.436 267.998,230.315 259.057,224.175 258.526 C 222.658 258.395,221.893 258.548,220.876 259.186 M292.000 259.953 C 289.704 260.452,288.062 261.523,286.898 263.281 L 285.800 264.940 285.684 284.170 C 285.525 310.740,285.242 310.250,300.600 309.938 C 312.527 309.696,312.944 309.142,313.124 293.290 L 313.247 282.380 306.724 282.490 L 300.200 282.600 300.200 286.000 L 300.200 289.400 301.795 289.530 C 303.943 289.705,303.987 289.832,303.994 295.881 C 304.002 303.174,303.987 303.200,299.600 303.200 C 294.873 303.200,295.200 304.566,295.200 284.800 C 295.200 265.101,294.901 266.400,299.442 266.400 C 303.568 266.400,304.000 266.825,304.000 270.889 L 304.000 273.600 308.645 273.600 L 313.291 273.600 313.139 269.495 C 312.948 264.334,311.924 262.219,308.906 260.748 C 306.878 259.760,295.375 259.219,292.000 259.953 M95.371 260.932 C 95.259 261.224,95.219 263.069,95.283 265.032 L 95.400 268.600 99.200 268.800 L 103.000 269.000 103.104 289.100 L 103.207 309.200 108.204 309.200 L 113.200 309.200 113.200 289.633 C 113.200 278.871,113.309 269.781,113.443 269.433 C 113.640 268.918,114.386 268.800,117.443 268.800 L 121.200 268.800 121.200 264.600 L 121.200 260.400 108.387 260.400 C 98.100 260.400,95.535 260.505,95.371 260.932 M175.455 261.000 C 175.315 261.366,175.200 272.361,175.200 285.433 L 175.200 309.200 180.200 309.200 L 185.200 309.200 185.200 299.774 C 185.200 288.525,185.114 288.800,188.614 288.800 C 192.883 288.800,192.800 288.583,192.800 299.800 L 192.800 309.200 197.829 309.200 L 202.858 309.200 202.729 298.500 C 202.589 286.871,202.451 286.112,200.220 284.650 C 198.931 283.805,198.939 283.475,200.264 282.768 C 202.333 281.663,203.192 278.855,203.196 273.173 C 203.202 265.841,202.150 263.203,198.400 261.148 C 196.737 260.237,175.800 260.102,175.455 261.000 M192.786 267.974 C 193.451 269.216,193.322 280.480,192.632 281.424 C 191.887 282.443,186.216 282.585,185.592 281.600 C 185.178 280.947,185.060 269.562,185.452 268.100 C 185.796 266.818,192.109 266.710,192.786 267.974 M256.400 272.229 C 256.070 272.344,255.039 272.829,254.108 273.306 C 252.506 274.128,252.388 274.137,251.902 273.472 C 251.460 272.868,250.826 272.785,247.394 272.884 L 243.400 273.000 243.296 291.100 L 243.192 309.200 247.996 309.200 L 252.800 309.200 252.800 294.600 C 252.800 280.533,252.829 279.971,253.600 279.200 C 254.618 278.182,258.553 278.072,259.911 279.023 L 260.800 279.645 260.800 294.423 L 260.800 309.200 265.625 309.200 L 270.451 309.200 270.325 293.700 C 270.182 276.004,270.099 275.536,266.693 273.282 C 265.109 272.233,258.365 271.543,256.400 272.229 M133.609 288.300 C 133.619 305.502,133.664 305.837,136.320 308.071 C 138.867 310.214,145.630 310.634,149.084 308.863 C 151.073 307.844,151.600 307.789,151.600 308.600 C 151.600 309.097,152.356 309.200,156.000 309.200 L 160.400 309.200 160.400 291.000 L 160.400 272.800 155.600 272.800 L 150.800 272.800 150.800 287.226 C 150.800 304.159,151.023 303.202,147.086 303.194 C 142.640 303.184,143.017 304.581,142.886 287.615 L 142.772 272.800 138.186 272.800 L 133.600 272.800 133.609 288.300 M219.200 291.000 L 219.200 309.200 223.800 309.200 L 228.400 309.200 228.400 291.000 L 228.400 272.800 223.800 272.800 L 219.200 272.800 219.200 291.000 " stroke="none" fill="#7ddc55" fill-rule="evenodd"></path><path id="path1" d="M0.000 200.000 L 0.000 400.000 200.000 400.000 L 400.000 400.000 400.000 200.000 L 400.000 0.000 200.000 0.000 L 0.000 0.000 0.000 200.000 M215.869 87.900 C 216.318 88.725,217.635 91.020,218.794 93.000 C 220.909 96.611,221.713 97.998,223.200 100.600 C 223.640 101.370,224.339 102.585,224.753 103.300 C 230.076 112.488,229.830 110.697,226.549 116.400 C 225.093 118.930,223.356 121.990,222.690 123.200 C 222.023 124.410,221.145 125.878,220.739 126.462 C 220.333 127.046,220.000 127.634,220.000 127.769 C 220.000 127.904,219.280 129.200,218.400 130.648 C 217.520 132.097,216.796 133.398,216.791 133.541 C 216.786 133.683,216.430 134.250,216.000 134.800 C 214.406 136.837,214.154 136.800,229.551 136.800 C 240.546 136.800,243.998 136.917,244.314 137.300 C 244.728 137.802,248.332 143.937,251.247 149.100 C 251.713 149.925,252.412 151.050,252.800 151.600 C 253.188 152.150,253.887 153.275,254.353 154.100 C 254.819 154.925,255.560 156.230,256.000 157.000 C 256.440 157.770,257.160 159.030,257.600 159.800 C 258.040 160.570,258.738 161.785,259.152 162.500 C 259.565 163.215,261.927 167.310,264.400 171.600 C 266.873 175.890,269.235 179.985,269.648 180.700 C 270.062 181.415,270.760 182.630,271.200 183.400 C 271.640 184.170,272.360 185.430,272.800 186.200 C 273.240 186.970,273.979 188.275,274.443 189.100 C 274.906 189.925,275.420 190.780,275.585 191.000 C 275.750 191.220,276.424 192.390,277.083 193.600 C 278.224 195.693,279.064 197.182,280.752 200.100 C 289.507 215.238,289.056 212.333,283.999 221.000 C 283.290 222.216,278.081 231.196,276.807 233.400 C 276.425 234.060,275.655 235.410,275.096 236.400 L 274.078 238.200 258.946 238.200 L 243.814 238.200 242.108 235.400 C 241.169 233.860,240.160 232.150,239.866 231.600 C 239.300 230.543,238.949 229.934,235.600 224.200 C 232.980 219.714,232.219 218.393,231.165 216.500 C 229.438 213.400,229.455 213.390,226.088 219.600 C 225.789 220.150,224.703 222.026,223.673 223.770 C 222.643 225.513,220.354 229.473,218.587 232.570 L 215.374 238.200 200.099 238.305 L 184.825 238.409 184.258 237.505 C 183.946 237.007,183.176 235.677,182.546 234.548 C 177.630 225.745,170.988 214.400,170.749 214.400 C 170.408 214.400,169.508 215.886,162.393 228.200 C 159.469 233.260,156.807 237.715,156.477 238.100 C 155.701 239.004,127.033 239.192,125.941 238.300 C 125.047 237.570,111.600 214.124,111.601 213.299 C 111.602 212.914,111.988 211.970,112.460 211.200 C 112.931 210.430,116.107 204.940,119.518 199.000 C 122.930 193.060,125.918 188.068,126.160 187.906 C 126.402 187.744,133.054 187.609,140.943 187.606 C 153.509 187.601,155.257 187.526,155.056 187.002 C 154.859 186.489,153.866 184.741,149.600 177.400 C 149.217 176.740,147.956 174.580,146.800 172.600 C 143.649 167.205,143.384 166.751,142.253 164.800 C 140.756 162.218,140.592 162.739,145.597 154.200 C 147.497 150.959,152.321 142.654,153.904 139.900 L 155.685 136.800 170.243 136.800 C 178.249 136.800,184.800 136.693,184.800 136.562 C 184.800 136.299,182.504 132.037,182.019 131.400 C 181.852 131.180,181.171 130.010,180.507 128.800 C 179.842 127.590,177.387 123.270,175.050 119.200 C 172.714 115.130,170.803 111.620,170.804 111.400 C 170.806 111.053,171.697 109.428,175.247 103.300 C 175.661 102.585,176.360 101.370,176.800 100.600 C 178.287 97.998,179.091 96.611,181.206 93.000 C 182.365 91.020,183.682 88.725,184.131 87.900 L 184.948 86.400 200.000 86.400 L 215.052 86.400 215.869 87.900 M186.002 137.300 C 186.006 137.989,185.510 137.106,195.659 154.500 C 197.231 157.195,198.779 159.904,199.098 160.520 C 199.916 162.098,200.231 161.841,202.706 157.582 C 203.915 155.502,205.218 153.260,205.602 152.600 C 213.754 138.599,214.430 137.364,214.123 137.057 C 213.593 136.526,186.000 136.765,186.002 137.300 M225.651 258.165 C 231.529 260.628,230.511 268.179,224.132 269.429 C 222.528 269.743,219.677 268.139,218.742 266.396 C 216.244 261.739,220.911 256.179,225.651 258.165 M308.487 259.952 C 312.371 261.616,313.526 263.926,313.570 270.112 L 313.600 274.424 308.500 274.312 L 303.400 274.200 303.282 271.019 C 303.132 267.005,302.955 266.800,299.631 266.800 C 295.723 266.800,296.000 265.429,296.000 284.800 C 296.000 304.157,295.729 302.800,299.600 302.800 C 303.222 302.800,303.200 302.841,303.200 296.120 L 303.200 290.400 301.974 290.400 C 299.481 290.400,299.200 289.955,299.200 286.000 C 299.200 281.424,298.974 281.548,307.093 281.690 L 313.400 281.800 313.507 292.800 C 313.619 304.373,313.543 305.015,311.757 307.446 C 309.891 309.986,308.157 310.400,299.392 310.400 C 284.700 310.400,284.800 310.573,284.800 285.058 C 284.800 259.162,284.711 259.320,299.267 259.241 C 305.744 259.205,306.966 259.300,308.487 259.952 M121.513 264.700 L 121.400 269.400 117.600 269.600 L 113.800 269.800 113.696 289.711 L 113.593 309.623 108.096 309.511 L 102.600 309.400 102.496 289.500 L 102.393 269.600 98.876 269.600 C 96.675 269.600,95.181 269.421,94.880 269.120 C 94.368 268.608,94.178 260.755,94.667 260.267 C 94.813 260.120,100.939 260.000,108.279 260.000 L 121.625 260.000 121.513 264.700 M198.600 260.761 C 201.687 262.194,202.839 263.887,203.549 268.033 C 204.621 274.290,203.802 279.932,201.473 282.339 L 200.058 283.800 201.033 284.521 C 203.013 285.988,203.200 287.222,203.200 298.849 L 203.200 309.600 197.607 309.600 L 192.014 309.600 191.907 299.700 L 191.800 289.800 188.907 289.683 L 186.014 289.565 185.907 299.483 L 185.800 309.400 180.300 309.511 L 174.800 309.623 174.800 285.078 C 174.800 271.578,174.920 260.413,175.067 260.267 C 175.774 259.559,196.970 260.004,198.600 260.761 M186.000 274.600 L 186.000 281.600 188.986 281.600 C 192.808 281.600,192.800 281.616,192.800 274.306 C 192.800 267.491,192.863 267.600,188.920 267.600 L 186.000 267.600 186.000 274.600 M264.472 271.777 C 267.121 272.581,268.275 273.446,269.516 275.557 L 270.600 277.400 270.725 293.512 L 270.849 309.624 265.525 309.512 L 260.200 309.400 260.000 294.400 L 259.800 279.400 256.800 279.400 L 253.800 279.400 253.695 294.512 L 253.590 309.623 248.295 309.512 L 243.000 309.400 242.889 291.600 C 242.828 281.810,242.876 273.395,242.997 272.900 C 243.286 271.707,251.187 271.502,252.461 272.655 C 253.044 273.183,253.301 273.214,253.780 272.817 C 255.597 271.309,261.150 270.768,264.472 271.777 M143.348 272.900 C 143.481 273.395,143.592 280.109,143.595 287.820 C 143.601 303.651,143.416 302.800,146.851 302.800 C 150.610 302.800,150.400 303.747,150.400 286.771 L 150.400 272.000 155.600 272.000 L 160.800 272.000 160.800 290.800 L 160.800 309.600 156.043 309.600 C 152.007 309.600,151.247 309.501,151.034 308.946 C 150.814 308.371,150.699 308.361,150.092 308.868 C 145.490 312.708,135.633 310.343,133.601 304.911 C 132.792 302.748,132.305 273.028,133.067 272.267 C 133.899 271.434,143.107 272.001,143.348 272.900 M228.997 273.300 C 229.125 274.015,229.178 282.430,229.115 292.000 L 229.000 309.400 223.700 309.512 L 218.400 309.623 218.400 291.078 C 218.400 280.879,218.520 272.413,218.667 272.267 C 218.813 272.120,221.145 272.000,223.849 272.000 L 228.764 272.000 228.997 273.300 " stroke="none" fill="#fbfbfb" fill-rule="evenodd"></path><path id="path2" d="M126.325 188.700 C 125.996 189.085,123.876 192.640,121.615 196.600 C 119.354 200.560,117.187 204.340,116.799 205.000 C 111.869 213.388,111.892 213.316,113.348 215.800 C 113.864 216.680,115.904 220.190,117.883 223.600 C 119.861 227.010,122.525 231.600,123.801 233.800 C 125.078 236.000,126.320 237.932,126.561 238.094 C 126.803 238.256,133.433 238.391,141.295 238.394 L 155.590 238.400 156.559 236.866 C 157.374 235.574,159.119 232.590,165.602 221.400 C 165.984 220.740,167.189 218.665,168.279 216.790 L 170.260 213.379 169.335 211.790 C 168.826 210.915,168.101 209.570,167.725 208.800 C 167.349 208.030,166.942 207.310,166.821 207.200 C 166.699 207.090,166.358 206.570,166.062 206.045 C 165.767 205.520,165.182 204.485,164.762 203.745 C 164.343 203.005,163.657 201.795,163.238 201.055 C 162.818 200.315,162.233 199.280,161.938 198.755 C 161.642 198.230,161.310 197.710,161.200 197.600 C 160.960 197.360,159.203 194.165,158.617 192.903 C 158.387 192.410,158.065 192.005,157.900 192.003 C 157.735 192.001,157.600 191.816,157.600 191.592 C 157.600 191.368,157.148 190.468,156.595 189.592 L 155.590 188.000 141.257 188.000 C 128.101 188.000,126.875 188.057,126.325 188.700 " stroke="none" fill="#058435" fill-rule="evenodd"></path><path id="path3" d="M184.129 87.900 C 183.679 88.725,182.003 91.650,180.406 94.400 C 178.808 97.150,177.163 99.985,176.750 100.700 C 176.338 101.415,175.661 102.585,175.247 103.300 C 171.697 109.428,170.806 111.053,170.804 111.400 C 170.803 111.620,172.713 115.130,175.048 119.200 C 177.383 123.270,179.745 127.410,180.296 128.400 C 180.848 129.390,181.681 130.830,182.149 131.600 C 183.973 134.606,184.430 135.425,184.658 136.100 C 184.876 136.750,185.951 136.800,199.623 136.800 C 207.724 136.800,214.446 136.951,214.560 137.135 C 214.673 137.319,213.371 139.884,211.665 142.835 C 199.452 163.958,199.842 163.208,200.775 163.784 C 200.981 163.912,201.401 164.507,201.709 165.108 C 202.017 165.709,202.659 166.875,203.135 167.700 C 203.611 168.525,204.335 169.785,204.744 170.500 C 205.153 171.215,206.053 172.753,206.744 173.918 C 207.435 175.082,208.000 176.130,208.000 176.246 C 208.000 176.361,208.540 177.241,209.200 178.200 C 209.860 179.159,210.400 180.064,210.400 180.210 C 210.400 180.357,210.732 180.954,211.138 181.538 C 211.545 182.122,212.556 183.860,213.386 185.400 C 214.217 186.940,215.144 188.484,215.448 188.831 C 215.752 189.179,216.000 189.565,216.000 189.691 C 216.000 189.816,216.720 191.103,217.600 192.552 C 218.480 194.000,219.200 195.369,219.200 195.593 C 219.200 195.817,219.335 196.001,219.500 196.003 C 219.665 196.005,219.998 196.410,220.240 196.903 C 221.069 198.590,222.600 201.400,222.800 201.600 C 222.910 201.710,223.225 202.205,223.500 202.700 C 223.775 203.195,224.225 204.005,224.500 204.500 C 224.775 204.995,225.090 205.490,225.200 205.600 C 225.310 205.710,225.642 206.230,225.938 206.755 C 228.293 210.937,231.970 217.279,241.101 232.905 L 244.084 238.010 258.941 237.905 L 273.798 237.800 280.691 226.000 C 284.483 219.510,287.588 213.874,287.592 213.475 C 287.599 212.861,282.635 203.965,272.483 186.400 C 271.276 184.310,267.140 177.110,263.293 170.400 C 259.446 163.690,254.998 156.040,253.409 153.400 C 251.820 150.760,249.118 146.170,247.404 143.200 C 245.689 140.230,244.087 137.668,243.843 137.506 C 243.600 137.344,237.055 137.209,229.300 137.206 C 214.402 137.200,213.892 137.132,215.562 135.380 C 215.762 135.171,216.302 134.325,216.762 133.500 C 217.223 132.675,217.960 131.370,218.400 130.600 C 218.840 129.830,219.579 128.525,220.043 127.700 C 220.506 126.875,221.020 126.020,221.185 125.800 C 221.350 125.580,222.029 124.410,222.693 123.200 C 223.358 121.990,225.093 118.930,226.549 116.400 C 229.830 110.697,230.076 112.488,224.753 103.300 C 224.339 102.585,223.662 101.415,223.250 100.700 C 222.837 99.985,221.192 97.150,219.594 94.400 C 217.997 91.650,216.321 88.725,215.871 87.900 L 215.052 86.400 200.000 86.400 L 184.948 86.400 184.129 87.900 " stroke="none" fill="#dad862" fill-rule="evenodd"></path><path id="path4" d="M153.904 139.900 C 152.321 142.654,147.497 150.959,145.597 154.200 C 140.592 162.739,140.756 162.218,142.253 164.800 C 143.384 166.751,143.649 167.205,146.800 172.600 C 147.956 174.580,149.217 176.740,149.600 177.400 C 153.866 184.741,154.859 186.489,155.056 187.002 C 155.257 187.526,153.509 187.601,140.943 187.606 C 133.054 187.609,126.403 187.744,126.161 187.906 C 125.920 188.068,123.511 192.070,120.807 196.800 C 118.103 201.530,115.540 205.985,115.113 206.700 C 114.685 207.415,114.431 208.000,114.548 208.000 C 114.773 208.000,116.899 204.495,118.915 200.800 C 119.575 199.590,120.250 198.420,120.415 198.200 C 120.580 197.980,121.094 197.125,121.557 196.300 C 122.021 195.475,122.760 194.170,123.200 193.400 C 123.640 192.630,124.379 191.325,124.843 190.500 C 125.306 189.675,125.868 188.775,126.092 188.500 C 126.403 188.116,129.932 188.000,141.249 188.000 C 149.362 188.000,156.000 187.901,156.000 187.780 C 156.000 187.360,154.642 184.939,148.605 174.600 C 145.265 168.880,142.311 163.785,142.040 163.277 C 141.595 162.443,141.883 161.773,145.045 156.277 C 153.006 142.441,155.767 137.785,156.172 137.506 C 156.968 136.959,184.173 137.143,184.901 137.700 C 185.260 137.975,188.006 142.430,191.003 147.600 C 194.000 152.770,197.274 158.376,198.280 160.058 L 200.108 163.116 201.516 160.458 C 202.290 158.996,203.317 157.170,203.799 156.400 C 205.033 154.426,205.773 152.928,205.281 153.400 C 205.052 153.620,203.884 155.502,202.686 157.582 C 200.235 161.839,199.917 162.100,199.098 160.520 C 198.779 159.904,197.231 157.195,195.659 154.500 C 185.510 137.106,186.006 137.989,186.002 137.300 C 186.001 136.909,182.701 136.800,170.843 136.800 L 155.685 136.800 153.904 139.900 M214.117 137.066 C 214.250 137.281,213.998 138.049,213.558 138.773 C 213.117 139.498,212.844 140.177,212.951 140.284 C 213.057 140.390,213.515 139.750,213.969 138.861 C 214.558 137.706,214.663 137.162,214.335 136.960 C 214.082 136.804,213.984 136.851,214.117 137.066 M229.467 137.190 C 237.424 137.306,244.016 137.490,244.116 137.600 C 244.216 137.710,245.691 140.230,247.395 143.200 C 250.549 148.699,251.200 149.685,251.200 148.960 C 251.200 148.740,251.037 148.389,250.838 148.180 C 250.638 147.971,250.122 147.170,249.689 146.400 C 247.657 142.782,244.685 137.750,244.314 137.300 C 243.996 136.914,240.615 136.821,229.451 136.890 L 215.000 136.980 229.467 137.190 M210.759 143.700 C 209.837 145.295,208.642 147.365,208.103 148.300 C 207.565 149.235,207.215 150.000,207.325 150.000 C 207.476 150.000,210.965 144.202,212.681 141.100 C 212.773 140.935,212.755 140.800,212.641 140.800 C 212.528 140.800,211.681 142.105,210.759 143.700 M251.319 149.900 C 252.686 152.371,255.771 157.162,255.907 157.026 C 256.006 156.927,255.708 156.313,255.244 155.661 C 254.780 155.010,254.400 154.367,254.400 154.232 C 254.400 153.909,251.535 149.600,251.320 149.600 C 251.228 149.600,251.227 149.735,251.319 149.900 M206.214 151.435 C 205.841 152.004,205.627 152.561,205.739 152.672 C 205.850 152.783,206.229 152.318,206.581 151.637 C 207.359 150.133,207.144 150.015,206.214 151.435 M256.586 158.700 C 256.935 159.415,257.306 160.000,257.410 160.000 C 257.808 160.000,257.552 159.363,256.767 158.400 L 255.952 157.400 256.586 158.700 M258.186 161.500 C 258.535 162.215,258.906 162.800,259.010 162.800 C 259.408 162.800,259.152 162.163,258.367 161.200 L 257.552 160.200 258.186 161.500 M259.288 163.400 C 261.975 168.647,271.200 184.104,271.200 183.360 C 271.200 183.140,271.037 182.789,270.838 182.580 C 270.638 182.371,270.120 181.570,269.686 180.800 C 265.380 173.165,259.859 163.721,259.513 163.400 C 259.226 163.133,259.151 163.133,259.288 163.400 M271.628 184.800 C 272.632 186.885,274.105 189.229,274.292 189.041 C 274.400 188.934,274.108 188.313,273.644 187.661 C 273.180 187.010,272.796 186.324,272.791 186.138 C 272.786 185.952,272.414 185.350,271.964 184.800 L 271.146 183.800 271.628 184.800 M275.307 191.300 C 275.848 192.235,276.509 193.420,276.777 193.934 C 277.046 194.448,277.348 194.786,277.449 194.684 C 277.660 194.473,274.875 189.600,274.543 189.600 C 274.422 189.600,274.766 190.365,275.307 191.300 M216.809 191.900 C 216.814 192.065,217.185 192.650,217.633 193.200 L 218.448 194.200 217.814 192.900 C 217.211 191.665,216.789 191.245,216.809 191.900 M278.186 196.300 C 278.535 197.015,278.906 197.600,279.010 197.600 C 279.408 197.600,279.152 196.963,278.367 196.000 L 277.552 195.000 278.186 196.300 M279.786 199.100 C 280.135 199.815,280.506 200.400,280.610 200.400 C 281.008 200.400,280.752 199.763,279.967 198.800 L 279.152 197.800 279.786 199.100 M280.919 201.000 C 281.017 201.220,282.561 203.949,284.349 207.065 C 287.847 213.162,287.974 213.579,286.870 215.400 C 285.279 218.024,283.964 220.556,284.583 219.800 C 288.520 214.999,288.562 213.704,284.989 207.418 C 282.478 203.003,280.231 199.459,280.919 201.000 M225.770 207.200 C 225.896 207.530,226.111 208.115,226.246 208.500 C 226.382 208.885,226.652 209.200,226.847 209.200 C 227.406 209.200,227.248 208.680,226.362 207.600 C 225.910 207.050,225.644 206.870,225.770 207.200 M112.843 210.525 C 112.159 211.720,111.600 213.046,111.600 213.472 C 111.600 214.303,112.766 216.121,112.787 215.324 C 112.794 215.062,112.620 214.736,112.400 214.600 C 111.557 214.079,112.435 211.338,114.100 209.290 C 114.328 209.010,114.418 208.684,114.300 208.567 C 114.182 208.449,113.527 209.330,112.843 210.525 M227.370 210.000 C 227.496 210.330,227.711 210.915,227.846 211.300 C 227.982 211.685,228.252 212.000,228.447 212.000 C 229.006 212.000,228.848 211.480,227.962 210.400 C 227.510 209.850,227.244 209.670,227.370 210.000 M228.813 212.956 C 228.801 213.637,226.262 218.211,217.689 233.000 L 214.906 237.800 200.007 237.800 L 185.108 237.800 180.514 229.800 C 170.537 212.429,170.989 213.128,170.255 213.939 C 169.895 214.337,169.600 214.801,169.600 214.970 C 169.600 215.138,169.220 215.810,168.756 216.461 C 168.292 217.113,168.000 217.734,168.108 217.841 C 168.215 217.948,168.782 217.218,169.368 216.218 C 169.954 215.218,170.570 214.400,170.737 214.400 C 170.985 214.400,177.541 225.587,182.546 234.548 C 183.176 235.677,183.946 237.007,184.258 237.505 L 184.825 238.409 200.099 238.305 L 215.374 238.200 218.587 232.570 C 220.354 229.473,222.643 225.513,223.673 223.770 C 224.703 222.026,225.789 220.150,226.088 219.600 C 226.386 219.050,227.240 217.539,227.986 216.242 L 229.342 213.883 230.304 215.042 L 231.265 216.200 230.663 215.000 C 229.614 212.909,228.828 212.041,228.813 212.956 M113.518 217.300 C 113.949 218.015,115.155 220.094,116.197 221.920 C 117.240 223.746,118.182 225.151,118.290 225.043 C 118.399 224.935,118.108 224.313,117.644 223.661 C 117.180 223.010,116.800 222.392,116.800 222.289 C 116.800 221.955,113.139 216.000,112.934 216.000 C 112.824 216.000,113.087 216.585,113.518 217.300 M231.200 216.720 C 231.200 216.896,231.363 217.211,231.562 217.420 C 231.762 217.629,232.278 218.430,232.711 219.200 C 235.250 223.721,237.720 227.853,238.090 228.200 C 238.650 228.724,238.701 228.821,234.826 222.100 C 231.731 216.732,231.200 215.944,231.200 216.720 M166.165 220.900 C 165.354 222.275,164.355 223.985,163.945 224.700 C 162.405 227.386,161.575 228.844,160.757 230.300 C 160.294 231.125,159.728 232.029,159.500 232.310 C 159.272 232.590,159.179 232.912,159.292 233.026 C 159.455 233.189,162.407 228.263,167.876 218.700 C 167.970 218.535,167.955 218.400,167.843 218.400 C 167.730 218.400,166.975 219.525,166.165 220.900 M282.986 222.100 L 282.352 223.400 283.167 222.400 C 283.952 221.437,284.208 220.800,283.810 220.800 C 283.706 220.800,283.335 221.385,282.986 222.100 M279.579 227.900 C 278.207 230.265,277.010 232.335,276.919 232.500 C 276.827 232.665,276.845 232.800,276.959 232.800 C 277.142 232.800,277.874 231.591,281.497 225.300 C 282.035 224.365,282.385 223.600,282.275 223.600 C 282.164 223.600,280.951 225.535,279.579 227.900 M118.522 225.900 C 121.101 230.483,125.425 237.901,125.691 238.200 C 126.248 238.825,125.560 237.133,124.796 236.000 C 124.425 235.450,123.580 234.010,122.918 232.800 C 120.902 229.115,118.773 225.600,118.557 225.600 C 118.445 225.600,118.429 225.735,118.522 225.900 M238.409 229.100 C 238.414 229.265,238.785 229.850,239.233 230.400 L 240.048 231.400 239.414 230.100 C 238.811 228.865,238.389 228.445,238.409 229.100 M240.000 231.768 C 240.000 231.861,240.863 233.346,241.918 235.068 L 243.836 238.200 258.970 238.200 L 274.105 238.200 274.783 236.936 C 275.156 236.241,275.777 235.190,276.162 234.601 C 276.548 234.012,276.783 233.450,276.685 233.352 C 276.587 233.253,275.888 234.214,275.133 235.486 L 273.761 237.800 258.921 237.905 L 244.082 238.010 242.203 234.805 C 240.528 231.947,240.000 231.220,240.000 231.768 M157.492 235.900 L 156.148 238.200 141.174 238.407 L 126.200 238.615 141.038 238.707 C 154.744 238.793,155.921 238.747,156.470 238.100 C 157.250 237.182,159.291 233.600,159.035 233.600 C 158.925 233.600,158.231 234.635,157.492 235.900 M221.205 258.510 C 216.929 260.771,216.949 266.431,221.242 268.715 C 226.882 271.716,232.267 264.368,227.873 259.665 C 225.924 257.578,223.696 257.193,221.205 258.510 M227.475 260.143 C 228.608 261.378,228.800 261.880,228.800 263.600 C 228.800 269.088,221.392 270.784,219.043 265.833 C 216.470 260.412,223.423 255.721,227.475 260.143 M290.437 259.717 C 285.201 261.388,284.800 263.190,284.800 285.058 C 284.800 310.573,284.700 310.400,299.392 310.400 C 308.157 310.400,309.891 309.986,311.757 307.446 C 313.543 305.015,313.619 304.373,313.507 292.800 L 313.400 281.800 307.093 281.690 C 298.974 281.548,299.200 281.424,299.200 286.000 C 299.200 289.955,299.481 290.400,301.974 290.400 L 303.200 290.400 303.200 296.120 C 303.200 302.841,303.222 302.800,299.600 302.800 C 295.729 302.800,296.000 304.157,296.000 284.800 C 296.000 265.429,295.723 266.800,299.631 266.800 C 302.955 266.800,303.132 267.005,303.282 271.019 L 303.400 274.200 308.500 274.312 L 313.600 274.424 313.570 270.112 C 313.526 263.926,312.371 261.616,308.487 259.952 C 306.455 259.081,292.979 258.905,290.437 259.717 M308.906 260.748 C 311.924 262.219,312.948 264.334,313.139 269.495 L 313.291 273.600 308.645 273.600 L 304.000 273.600 304.000 270.889 C 304.000 266.825,303.568 266.400,299.442 266.400 C 294.901 266.400,295.200 265.101,295.200 284.800 C 295.200 304.566,294.873 303.200,299.600 303.200 C 303.987 303.200,304.002 303.174,303.994 295.881 C 303.987 289.832,303.943 289.705,301.795 289.530 L 300.200 289.400 300.200 286.000 L 300.200 282.600 306.724 282.490 L 313.247 282.380 313.124 293.290 C 312.944 309.142,312.527 309.696,300.600 309.938 C 285.242 310.250,285.525 310.740,285.684 284.170 L 285.800 264.940 286.898 263.281 C 288.979 260.138,290.932 259.617,300.200 259.734 C 306.401 259.812,307.168 259.902,308.906 260.748 M94.667 260.267 C 94.178 260.755,94.368 268.608,94.880 269.120 C 95.181 269.421,96.675 269.600,98.876 269.600 L 102.393 269.600 102.496 289.500 L 102.600 309.400 108.096 309.511 L 113.593 309.623 113.696 289.711 L 113.800 269.800 117.600 269.600 L 121.400 269.400 121.513 264.700 L 121.625 260.000 108.279 260.000 C 100.939 260.000,94.813 260.120,94.667 260.267 M175.067 260.267 C 174.920 260.413,174.800 271.578,174.800 285.078 L 174.800 309.623 180.300 309.511 L 185.800 309.400 185.907 299.483 L 186.014 289.565 188.907 289.683 L 191.800 289.800 191.907 299.700 L 192.014 309.600 197.607 309.600 L 203.200 309.600 203.200 298.849 C 203.200 287.222,203.013 285.988,201.033 284.521 L 200.058 283.800 201.473 282.339 C 205.075 278.616,204.836 265.954,201.096 262.363 C 198.810 260.170,197.850 260.018,186.167 260.009 C 180.208 260.004,175.213 260.120,175.067 260.267 M121.200 264.600 L 121.200 268.800 117.443 268.800 C 114.386 268.800,113.640 268.918,113.443 269.433 C 113.309 269.781,113.200 278.871,113.200 289.633 L 113.200 309.200 108.204 309.200 L 103.207 309.200 103.104 289.100 L 103.000 269.000 99.200 268.800 L 95.400 268.600 95.283 265.032 C 95.219 263.069,95.259 261.224,95.371 260.932 C 95.535 260.505,98.100 260.400,108.387 260.400 L 121.200 260.400 121.200 264.600 M198.400 261.148 C 202.150 263.203,203.202 265.841,203.196 273.173 C 203.192 278.855,202.333 281.663,200.264 282.768 C 198.939 283.475,198.931 283.805,200.220 284.650 C 202.451 286.112,202.589 286.871,202.729 298.500 L 202.858 309.200 197.829 309.200 L 192.800 309.200 192.800 299.800 C 192.800 288.583,192.883 288.800,188.614 288.800 C 185.114 288.800,185.200 288.525,185.200 299.774 L 185.200 309.200 180.200 309.200 L 175.200 309.200 175.200 285.433 C 175.200 272.361,175.315 261.366,175.455 261.000 C 175.800 260.102,196.737 260.237,198.400 261.148 M185.452 268.100 C 185.060 269.562,185.178 280.947,185.592 281.600 C 186.216 282.585,191.887 282.443,192.632 281.424 C 193.322 280.480,193.451 269.216,192.786 267.974 C 192.109 266.710,185.796 266.818,185.452 268.100 M192.320 268.080 C 192.929 268.689,192.986 279.705,192.386 280.826 C 192.033 281.485,191.529 281.600,188.986 281.600 L 186.000 281.600 186.000 274.600 L 186.000 267.600 188.920 267.600 C 190.658 267.600,192.034 267.794,192.320 268.080 M256.087 271.788 C 255.145 272.082,254.107 272.545,253.780 272.817 C 253.301 273.214,253.044 273.183,252.461 272.655 C 251.187 271.502,243.286 271.707,242.997 272.900 C 242.876 273.395,242.828 281.810,242.889 291.600 L 243.000 309.400 248.295 309.512 L 253.590 309.623 253.695 294.512 L 253.800 279.400 256.800 279.400 L 259.800 279.400 260.000 294.400 L 260.200 309.400 265.525 309.512 L 270.849 309.624 270.725 293.512 L 270.600 277.400 269.516 275.557 C 267.298 271.783,261.402 270.129,256.087 271.788 M133.067 272.267 C 132.305 273.028,132.792 302.748,133.601 304.911 C 135.633 310.343,145.490 312.708,150.092 308.868 C 150.699 308.361,150.814 308.371,151.034 308.946 C 151.247 309.501,152.007 309.600,156.043 309.600 L 160.800 309.600 160.800 290.800 L 160.800 272.000 155.600 272.000 L 150.400 272.000 150.400 286.771 C 150.400 303.747,150.610 302.800,146.851 302.800 C 143.416 302.800,143.601 303.651,143.595 287.820 C 143.588 270.138,144.220 272.000,138.220 272.000 C 135.532 272.000,133.213 272.120,133.067 272.267 M218.667 272.267 C 218.520 272.413,218.400 280.879,218.400 291.078 L 218.400 309.623 223.700 309.512 L 229.000 309.400 229.115 292.000 C 229.178 282.430,229.125 274.015,228.997 273.300 L 228.764 272.000 223.849 272.000 C 221.145 272.000,218.813 272.120,218.667 272.267 M266.693 273.282 C 270.099 275.536,270.182 276.004,270.325 293.700 L 270.451 309.200 265.625 309.200 L 260.800 309.200 260.800 294.423 L 260.800 279.645 259.911 279.023 C 258.553 278.072,254.618 278.182,253.600 279.200 C 252.829 279.971,252.800 280.533,252.800 294.600 L 252.800 309.200 247.996 309.200 L 243.192 309.200 243.296 291.100 L 243.400 273.000 247.394 272.884 C 250.826 272.785,251.460 272.868,251.902 273.472 C 252.388 274.137,252.506 274.128,254.108 273.306 C 256.613 272.020,256.666 272.011,261.041 272.118 C 264.659 272.206,265.251 272.328,266.693 273.282 M142.886 287.615 C 143.017 304.581,142.640 303.184,147.086 303.194 C 151.023 303.202,150.800 304.159,150.800 287.226 L 150.800 272.800 155.600 272.800 L 160.400 272.800 160.400 291.000 L 160.400 309.200 156.000 309.200 C 152.356 309.200,151.600 309.097,151.600 308.600 C 151.600 307.789,151.073 307.844,149.084 308.863 C 145.630 310.634,138.867 310.214,136.320 308.071 C 133.664 305.837,133.619 305.502,133.609 288.300 L 133.600 272.800 138.186 272.800 L 142.772 272.800 142.886 287.615 M228.400 291.000 L 228.400 309.200 223.800 309.200 L 219.200 309.200 219.200 291.000 L 219.200 272.800 223.800 272.800 L 228.400 272.800 228.400 291.000 " stroke="none" fill="#b0e89d" fill-rule="evenodd"></path></g></svg>